<svg xmlns="http://www.w3.org/2000/svg" xmlns:xlink="http://www.w3.org/1999/xlink" version="1.1" id="Capa_1" x="0px" y="0px" width="77.997px" height="77.997px" viewBox="0 0 77.997 77.997" enable-background="new 0 0 77.997 77.997" xml:space="preserve">
<path d="M58.786,6.074L18.308,6.009C11.63,5.999,6.208,11.433,6.195,18.15L6.131,58.852c-0.013,6.717,5.393,12.168,12.074,12.184  l40.475,0.062c6.679,0.013,12.104-5.427,12.116-12.141l0.064-40.703C70.873,11.537,65.464,6.086,58.786,6.074z M21.245,64.239  c-2.995-0.005-5.987-0.009-8.978-0.015c0.004-3.01,0.009-6.018,0.017-9.024c2.991,0.001,5.982,0.009,8.974,0.011  C21.25,58.221,21.249,61.228,21.245,64.239z M21.264,50.234c-2.991-0.002-5.982-0.007-8.974-0.015  c0.005-3.032,0.009-6.068,0.014-9.101c2.992,0.004,5.984,0.01,8.975,0.015C21.274,44.168,21.273,47.201,21.264,50.234z   M21.289,35.478c-2.994-0.001-5.986-0.009-8.977-0.013c0.008-3.011,0.009-6.018,0.017-9.026c2.992,0.005,5.984,0.011,8.975,0.015  C21.301,29.463,21.293,32.468,21.289,35.478z M21.31,21.4c-2.992-0.004-5.983-0.009-8.975-0.014  c0.005-3.007,0.009-6.017,0.017-9.027c2.991,0.008,5.982,0.012,8.974,0.017C21.325,15.383,21.317,18.393,21.31,21.4z M51.975,64.289  l-27.044-0.045l0.038-23.104l27.047,0.043L51.975,64.289z M52.021,35.529l-27.042-0.045l0.034-23.103l27.048,0.045L52.021,35.529z   M64.643,64.308c-2.991-0.008-5.982-0.01-8.975-0.014c0.002-3.008,0.003-6.018,0.012-9.025c2.991,0.005,5.982,0.01,8.974,0.015  C64.652,58.294,64.645,61.298,64.643,64.308z M64.667,50.16c-2.992-0.001-5.983-0.009-8.98-0.01c0.008-2.985,0.01-5.974,0.017-8.961  c2.992,0.007,5.983,0.009,8.975,0.016C64.676,44.19,64.668,47.175,64.667,50.16z M64.688,35.551  c-2.991-0.008-5.982-0.013-8.974-0.018c0.001-3.007,0.009-6.018,0.01-9.024c2.991,0.005,5.983,0.01,8.98,0.017  C64.698,29.531,64.696,32.541,64.688,35.551z M64.711,21.47c-2.991-0.005-5.982-0.01-8.98-0.015c0.008-3.01,0.016-6.017,0.018-9.024  c2.991,0.005,5.989,0.01,8.974,0.014C64.72,15.453,64.719,18.462,64.711,21.47z"/>
</svg>