<svg xmlns="http://www.w3.org/2000/svg" xmlns:xlink="http://www.w3.org/1999/xlink" version="1.1" x="0px" y="0px" width="100px" height="100px" viewBox="0 0 100 100" enable-background="new 0 0 100 100" xml:space="preserve">
<g id="Captions" display="none">
</g>
<g id="Your_Icon">
	<path d="M18.941,32.473l3.292,9.224l-8.253,2.945l8.834,24.76c1.242,3.48,5.084,5.301,8.563,4.06l7.282-2.599   c0.146-0.052,0.28-0.119,0.42-0.181c0.185-0.049,0.367-0.101,0.552-0.165l39.812-14.206c3.479-1.241,5.301-5.083,4.059-8.563   L71.377,13.763L18.941,32.473z M31.068,66.457c0.287,0.804-0.135,1.689-0.938,1.977l-0.485,0.174   c-0.804,0.286-1.688-0.134-1.976-0.938l-7.104-19.905l3.398-1.212L31.068,66.457z M78.647,49.48   c0.286,0.803-0.134,1.689-0.937,1.977L36.443,66.182c-0.804,0.287-0.234-0.653-0.52-1.457L25.529,35.595l42.723-15.245   L78.647,49.48z"/>
	<rect x="29.57" y="31.278" transform="matrix(0.9418 -0.3361 0.3361 0.9418 -8.7067 18.4322)" width="38.661" height="6.186"/>
	<rect x="34.462" y="45.112" transform="matrix(0.9418 -0.3361 0.3361 0.9418 -14.4984 16.7562)" width="13.402" height="10.31"/>
	<rect x="51.705" y="37.757" transform="matrix(-0.9418 0.336 -0.336 -0.9418 132.3037 56.7417)" width="19.074" height="4.124"/>
	<rect x="53.786" y="43.582" transform="matrix(-0.9418 0.3361 -0.3361 -0.9418 138.3008 67.3546)" width="19.072" height="4.124"/>
</g>
</svg>