<?xml version="1.0" encoding="utf-8"?>
<!-- Generator: Adobe Illustrator 15.1.0, SVG Export Plug-In . SVG Version: 6.00 Build 0)  -->
<!DOCTYPE svg PUBLIC "-//W3C//DTD SVG 1.1//EN" "http://www.w3.org/Graphics/SVG/1.1/DTD/svg11.dtd">
<svg version="1.1" id="Layer_1" xmlns="http://www.w3.org/2000/svg" xmlns:xlink="http://www.w3.org/1999/xlink" x="0px" y="0px"
	 width="88.316px" height="100px" viewBox="0 0 88.316 100" enable-background="new 0 0 88.316 100" xml:space="preserve">
<path d="M71.424,61.287c0-9.499,0-46.424,0-46.424h-2.565H16.802l-5.638,3.333v66.94h57.695v-5.972h8.293
	C77.152,79.165,71.424,74.567,71.424,61.287z M67.63,51.26h-9.877V40.69h9.877V51.26z M43.458,28.495v10.57H32.414v-10.57H43.458z
	 M45.083,28.495h11.045v10.57H45.083V28.495z M20.596,28.495h10.192v10.57H20.596V28.495z M20.596,40.691h10.192V51.26H20.596
	V40.691z M20.596,52.886h10.192v8.403c0,0.758,0.016,1.479,0.045,2.167H20.596V52.886z M32.414,61.289v-8.403h11.044v8.403
	c0,0.758,0.016,1.479,0.045,2.167H32.46C32.43,62.771,32.414,62.051,32.414,61.289z M32.414,51.26V40.69h11.044V51.26H32.414z
	 M45.083,40.691h11.045V51.26H45.083V40.691z M67.63,39.064h-9.877V28.495h9.877V39.064z M30.931,65.082
	c0.429,5.374,1.755,8.489,3.077,10.289H23.405c-0.258-0.229-0.69-0.713-1.143-1.654c-0.683-1.42-1.482-4.045-1.637-8.635H30.931z
	 M36.175,75.371c-1.275-1.172-3.09-3.932-3.614-10.289h11.04c0.429,5.374,1.756,8.489,3.077,10.289H36.175z M48.845,75.371
	c-1.275-1.172-3.09-3.932-3.613-10.289h11.039c0.429,5.374,1.756,8.489,3.077,10.289H48.845z M45.13,63.456
	c-0.029-0.686-0.047-1.405-0.047-2.167v-8.403h11.045v8.403c0,0.758,0.016,1.479,0.045,2.167H45.13z M57.753,61.289v-8.403h9.877
	v8.401v1.628c0,0.183,0.003,0.361,0.004,0.541H57.8C57.77,62.771,57.753,62.051,57.753,61.289z M65.065,81.343H14.958V20.361
	l1.844-1.09c0,10.225,0,35.37,0,44.187c0,14.636,5.728,15.708,5.728,15.708h42.537L65.065,81.343L65.065,81.343z M68.859,75.371
	h-3.794h-3.55c-1.275-1.172-3.09-3.932-3.613-10.289h9.775c0.172,3.999,0.829,7.443,1.966,10.289H68.859z"/>
</svg>
