<?xml version="1.0" encoding="utf-8"?>
<!-- Generator: Adobe Illustrator 15.1.0, SVG Export Plug-In . SVG Version: 6.00 Build 0)  -->
<!DOCTYPE svg PUBLIC "-//W3C//DTD SVG 1.1//EN" "http://www.w3.org/Graphics/SVG/1.1/DTD/svg11.dtd">
<svg version="1.1" id="Layer_1" xmlns="http://www.w3.org/2000/svg" xmlns:xlink="http://www.w3.org/1999/xlink" x="0px" y="0px"
	 width="512px" height="512px" viewBox="0 0 512 512" enable-background="new 0 0 512 512" xml:space="preserve">
<path d="M496.458,236.687H15.543v249.898c0,0-0.142,7.759,7.135,6.847c9.062-1.137,461.456,0,461.456,0s12.324,0.912,12.324-10.27
	C496.458,479.739,496.458,236.687,496.458,236.687z"/>
<path d="M15.543,216.61h63.961l47.925-62.083l-47.925-52.034H24.047c0,0-8.504,0.685-8.504,7.532
	C15.543,116.871,15.543,216.61,15.543,216.61z"/>
<polygon points="116.476,92.908 168.509,81.27 229.443,133.303 163.716,144.257 "/>
<polygon points="197.95,77.161 258.883,66.207 321.871,116.871 259.91,128.51 "/>
<polygon points="288.322,61.414 346.52,50.46 410.192,102.493 349.257,112.764 "/>
<polygon points="378.698,47.037 475.918,28.551 492.176,81.612 435.437,97.359 "/>
<polygon points="139.068,170.273 197.95,170.273 163.716,216.61 102.097,216.61 "/>
<polygon points="223.966,170.273 300.405,170.273 262.186,216.61 185.625,216.61 "/>
<polygon points="324.609,170.273 390.336,170.273 352.681,216.61 288.322,216.61 "/>
<path d="M412.93,170.273c0,0-41.764,48.172-36.286,46.337c5.477-1.834,112.283,0.051,112.283,0.051v-46.388H412.93z"/>
</svg>
