<?xml version="1.0" encoding="utf-8"?>
<!-- Generator: Adobe Illustrator 15.1.0, SVG Export Plug-In . SVG Version: 6.00 Build 0)  -->
<!DOCTYPE svg PUBLIC "-//W3C//DTD SVG 1.1//EN" "http://www.w3.org/Graphics/SVG/1.1/DTD/svg11.dtd">
<svg version="1.1" id="Layer_1" xmlns="http://www.w3.org/2000/svg" xmlns:xlink="http://www.w3.org/1999/xlink" x="0px" y="0px"
	 width="512px" height="512px" viewBox="0 0 512 512" enable-background="new 0 0 512 512" xml:space="preserve">
<path fill="#231F20" d="M424.951,376.507c0,45.315-36.759,82.072-82.03,82.072H105.89c-45.313,0-82.07-36.757-82.07-82.072V139.476
	c0-45.313,36.757-82.028,82.07-82.028h237.031c11.381,0,22.762,2.243,33.311,7.102c2.575,1.122,4.568,3.697,5.151,6.562
	c0.54,3.115-0.291,5.981-2.576,8.266l-13.955,13.955c-1.703,1.703-4.277,2.823-6.562,2.823c-0.875,0-1.704-0.249-2.576-0.54
	c-4.276-1.122-8.554-1.703-12.793-1.703H105.89c-25.086,0-45.604,20.518-45.604,45.562v237.031
	c0,25.087,20.519,45.604,45.604,45.604h237.031c25.045,0,45.563-20.518,45.563-45.604v-72.35c0-2.285,0.872-4.569,2.574-6.272
	l18.234-18.232c1.993-1.994,4.277-2.826,6.563-2.826c1.12,0,2.242,0.25,3.404,0.832c3.405,1.413,5.69,4.569,5.69,8.264V376.507z"/>
<path fill="#231F20" d="M258.857,378.501c-9.096,9.14-23.34,9.14-32.479,0L103.896,255.978c-9.136-9.096-9.136-23.341,0-32.479
	l31.317-31.316c9.137-9.137,23.383-9.137,32.479,0l74.926,74.927L426.943,82.782c9.14-9.137,23.384-9.137,32.479,0l31.358,31.317
	c9.096,9.138,9.096,23.383,0,32.479L258.857,378.501z"/>
</svg>
