<?xml version="1.0" encoding="utf-8"?>
<!-- Generator: Adobe Illustrator 15.1.0, SVG Export Plug-In . SVG Version: 6.00 Build 0)  -->
<!DOCTYPE svg PUBLIC "-//W3C//DTD SVG 1.1//EN" "http://www.w3.org/Graphics/SVG/1.1/DTD/svg11.dtd">
<svg version="1.1" id="Layer_1" xmlns="http://www.w3.org/2000/svg" xmlns:xlink="http://www.w3.org/1999/xlink" x="0px" y="0px"
	 width="512px" height="512px" viewBox="0 0 512 512" enable-background="new 0 0 512 512" xml:space="preserve">
<path fill="#231F20" d="M473.293,452.268c0,18.362-15.191,33.52-33.519,33.52H71.067c-18.325,0-33.522-15.157-33.522-33.52V117.079
	c0-18.325,15.197-33.521,33.522-33.521h33.518V58.439c0-23.06,18.859-41.918,41.881-41.918h16.759
	c23.058,0,41.921,18.859,41.921,41.918v25.119h100.556V58.439c0-23.06,18.859-41.918,41.876-41.918h16.765
	c23.058,0,41.915,18.859,41.915,41.918v25.119h33.518c18.327,0,33.519,15.196,33.519,33.521V452.268z"/>
<rect x="71.067" y="184.115" fill="#FFFFFF" width="75.399" height="75.436"/>
<rect x="71.067" y="276.314" fill="#FFFFFF" width="75.399" height="83.795"/>
<rect x="71.067" y="376.869" fill="#FFFFFF" width="75.399" height="75.398"/>
<path fill="#FFFFFF" d="M171.623,58.439c0-4.468-3.932-8.399-8.398-8.399h-16.759c-4.43,0-8.361,3.931-8.361,8.399v75.399
	c0,4.465,3.932,8.398,8.361,8.398h16.759c4.467,0,8.398-3.933,8.398-8.398V58.439z"/>
<rect x="163.225" y="184.115" fill="#FFFFFF" width="83.797" height="75.436"/>
<rect x="163.225" y="276.314" fill="#FFFFFF" width="83.797" height="83.795"/>
<rect x="163.225" y="376.869" fill="#FFFFFF" width="83.797" height="75.398"/>
<rect x="263.785" y="184.115" fill="#FFFFFF" width="83.792" height="75.436"/>
<rect x="263.785" y="276.314" fill="#FFFFFF" width="83.792" height="83.795"/>
<rect x="263.785" y="376.869" fill="#FFFFFF" width="83.792" height="75.398"/>
<path fill="#FFFFFF" d="M372.738,58.439c0-4.468-3.933-8.399-8.396-8.399h-16.765c-4.427,0-8.357,3.931-8.357,8.399v75.399
	c0,4.465,3.931,8.398,8.357,8.398h16.765c4.464,0,8.396-3.933,8.396-8.398V58.439z"/>
<rect x="364.342" y="184.115" fill="#FFFFFF" width="75.433" height="75.436"/>
<rect x="364.342" y="276.314" fill="#FFFFFF" width="75.433" height="83.795"/>
<rect x="364.342" y="376.869" fill="#FFFFFF" width="75.433" height="75.398"/>
</svg>
