<?xml version="1.0" encoding="utf-8"?>
<!-- Generator: Adobe Illustrator 15.1.0, SVG Export Plug-In . SVG Version: 6.00 Build 0)  -->
<!DOCTYPE svg PUBLIC "-//W3C//DTD SVG 1.1//EN" "http://www.w3.org/Graphics/SVG/1.1/DTD/svg11.dtd">
<svg version="1.1" id="Layer_1" xmlns="http://www.w3.org/2000/svg" xmlns:xlink="http://www.w3.org/1999/xlink" x="0px" y="0px"
	 width="100px" height="100px" viewBox="0 0 100 100" enable-background="new 0 0 100 100" xml:space="preserve">
<g id="news_1_">
	<path fill="#010101" d="M17.268,37.929h54.554v-5.452H17.268V37.929z M47.271,70.665h19.092v-5.453H47.271V70.665z M47.271,59.752
		h24.551v-5.453H47.271V59.752z M47.271,48.843h24.551v-5.455H47.271V48.843z M17.268,70.665h24.551V43.389H17.268V70.665z
		 M82.731,27.023V16.109H6.357v60.009c0,0,0,10.912,10.911,10.912h68.193c0,0,8.183-0.17,8.183-10.912V27.023H82.731z
		 M17.268,81.577c-5.455,0-5.455-5.456-5.455-5.456V21.564h65.465v54.554c0,2.514,0.774,4.251,1.842,5.453H17.268V81.577z"/>
</g>
</svg>
