<?xml version="1.0" encoding="utf-8"?>
<!-- Generator: Adobe Illustrator 15.1.0, SVG Export Plug-In . SVG Version: 6.00 Build 0)  -->
<!DOCTYPE svg PUBLIC "-//W3C//DTD SVG 1.1//EN" "http://www.w3.org/Graphics/SVG/1.1/DTD/svg11.dtd">
<svg version="1.1" id="Layer_1" xmlns="http://www.w3.org/2000/svg" xmlns:xlink="http://www.w3.org/1999/xlink" x="0px" y="0px"
	 width="512px" height="512px" viewBox="0 0 512 512" enable-background="new 0 0 512 512" xml:space="preserve">
<g>
	<path d="M202.49,159.124c0,34.329-7.548,59.845-22.644,76.559c-15.096,16.714-35.765,25.071-62.002,25.071
		c-16.175,0-30.689-3.547-43.536-10.648c-12.852-7.097-22.872-18.196-30.058-33.292c-7.19-15.096-10.783-33.516-10.783-55.263
		c0-23.36,2.784-42.862,8.357-58.498c5.568-15.635,14.599-27.497,27.092-35.583c12.489-8.087,28.44-12.131,47.849-12.131
		c14.018,0,26.326,2.157,36.932,6.47c10.602,4.313,19.586,10.918,26.958,19.813c7.367,8.896,12.847,19.726,16.444,32.484
		C200.691,126.867,202.49,141.871,202.49,159.124z M152.08,156.428c0-23.542-2.519-40.66-7.548-51.354
		c-5.033-10.69-13.929-16.04-26.688-16.04c-8.626,0-15.5,2.561-20.623,7.683c-5.122,5.122-8.626,12.67-10.513,22.645
		c-1.887,9.974-2.831,22.69-2.831,38.145c0,15.998,0.943,29.025,2.831,39.088c1.887,10.067,5.345,17.657,10.378,22.779
		c5.029,5.122,11.95,7.683,20.757,7.683c13.297,0,22.328-5.661,27.092-16.983C149.695,198.75,152.08,180.871,152.08,156.428z
		 M382.296,90.921L157.741,452.959c-5.754,9.882-12.224,14.826-19.41,14.826c-4.136,0-8.268-1.575-12.4-4.717
		c-4.136-3.146-6.2-7.236-6.2-12.266c0-3.774,1.794-8.357,5.392-13.749L351.025,72.051c3.95-6.646,7.413-11.634,10.378-14.961
		c2.966-3.324,7.232-4.987,12.805-4.987c5.392,0,9.747,1.575,13.075,4.717c3.323,3.146,4.986,7.325,4.986,12.535
		C392.27,73.129,388.942,80.319,382.296,90.921z M478.533,354.025c0,34.328-7.548,59.846-22.644,76.559
		c-15.097,16.714-35.766,25.07-62.002,25.07c-16.355,0-30.959-3.593-43.806-10.782c-12.852-7.187-22.914-18.238-30.192-33.158
		c-7.279-14.915-10.918-33.334-10.918-55.263c0-35.044,6.693-61.416,20.083-79.12c13.386-17.699,34.641-26.553,63.754-26.553
		c14.019,0,26.284,2.157,36.797,6.47c10.514,4.313,19.498,10.783,26.958,19.409c7.455,8.627,12.981,19.367,16.579,32.214
		C476.735,321.723,478.533,336.772,478.533,354.025z M428.123,351.33c0-23.184-2.519-40.121-7.548-50.815
		c-5.033-10.69-13.93-16.04-26.688-16.04c-8.989,0-15.998,2.52-21.027,7.549c-5.033,5.033-8.584,12.446-10.647,22.239
		c-2.068,9.798-3.101,22.51-3.101,38.146c0,24.084,2.561,41.695,7.683,52.836c5.122,11.146,14.153,16.714,27.093,16.714
		c13.116,0,22.104-5.703,26.957-17.118C425.697,393.43,428.123,375.591,428.123,351.33z"/>
</g>
</svg>
