<?xml version="1.0" encoding="utf-8"?>
<!-- Generator: Adobe Illustrator 15.1.0, SVG Export Plug-In . SVG Version: 6.00 Build 0)  -->
<!DOCTYPE svg PUBLIC "-//W3C//DTD SVG 1.1//EN" "http://www.w3.org/Graphics/SVG/1.1/DTD/svg11.dtd">
<svg version="1.1" id="Layer_1" xmlns="http://www.w3.org/2000/svg" xmlns:xlink="http://www.w3.org/1999/xlink" x="0px" y="0px"
	 width="512px" height="512px" viewBox="0 0 512 512" enable-background="new 0 0 512 512" xml:space="preserve">
<g>
	<path fill="#4D4D4D" d="M344.539,450.628h-10.691l-9.408-47.042c-2.075-10.374-11.183-17.834-21.755-17.834h-10.636
		c0,0-15.235-14.112-14.318-20.147c1.997-12.719,10.763-23.727,10.763-41.26c0-25.881-2.557-24.772-2.557-34.291
		s15.941-16.552,15.941-48.657c0-31.218-7.31-30.188-7.31-42.385c0-4.149,8.221-3.009,17.408-15.791
		c4.276-5.924,8.9-51.603,8.9-57.938c0-24.393-9.631-22.602-22.459-25.865c-12.829-3.279-29.333-8.141-29.333-18.39
		c0-4.451,8.83-11.055,8.83-27.1c-0.002-16.06-4.461-24.994-21.916-24.994c-17.454,0-21.913,8.934-21.913,24.994
		c0,16.044,8.862,22.649,8.862,27.1c0,10.248-16.537,15.11-29.374,18.39c-12.805,3.263-22.451,1.472-22.451,25.865
		c0,6.335,4.648,52.015,8.917,57.938c9.171,12.781,17.416,11.641,17.416,15.791c0,12.196-7.31,11.167-7.31,42.385
		c0,32.105,15.917,39.137,15.917,48.657c0,9.519-2.534,8.41-2.534,34.291c0,17.533,8.774,30.157,10.739,42.876
		c0.918,6.034-14.311,18.531-14.311,18.531h-10.644c-10.581,0-19.679,7.46-21.755,17.834l-9.409,47.042h-10.683
		c-4.855,0-8.783,3.928-8.783,8.774v14.889c0,4.847,3.928,8.774,8.783,8.774h177.07c4.847,0,8.774-3.928,8.774-8.774v-14.889
		C353.313,454.556,349.386,450.628,344.539,450.628z M288.438,434.408h-64.875v-16.219h64.875V434.408z"/>
</g>
</svg>
