<?xml version="1.0" encoding="utf-8"?>
<!-- Generator: Adobe Illustrator 15.1.0, SVG Export Plug-In . SVG Version: 6.00 Build 0)  -->
<!DOCTYPE svg PUBLIC "-//W3C//DTD SVG 1.1//EN" "http://www.w3.org/Graphics/SVG/1.1/DTD/svg11.dtd">
<svg version="1.1" id="Layer_1" xmlns="http://www.w3.org/2000/svg" xmlns:xlink="http://www.w3.org/1999/xlink" x="0px" y="0px"
	 width="512px" height="512px" viewBox="0 0 512 512" enable-background="new 0 0 512 512" xml:space="preserve">
<path fill="#231F20" d="M465.905,282.605c1.623,5.978,2.456,12.511,2.456,18.766c0,13.539-3.523,27.158-10.334,39.076
	c0.554,3.801,0.832,7.878,0.832,11.679c0,17.38-5.7,34.759-16.271,48.338c0.514,51.349-34.524,81.475-84.764,81.475h-9.778h-25.258
	c-38.56,0-74.389-11.402-110.218-23.911c-7.918-2.731-29.891-10.849-37.491-10.849H96.888c-19.32,0-34.759-15.479-34.759-34.759
	V238.621c0-19.28,15.439-34.76,34.759-34.76h74.39c10.57-7.087,29.059-31.514,37.175-42.084
	c9.263-11.957,18.765-23.636,29.058-34.761c16.312-17.419,7.602-60.294,34.761-86.938c6.532-6.216,15.204-10.017,24.466-10.017
	c28.229,0,55.386,10.017,68.729,36.383c8.392,16.548,9.501,32.305,9.501,50.517c0,19.003-4.91,35.314-13.065,52.14h47.827
	c37.45,0,69.519,31.79,69.519,69.242C479.247,254.101,474.616,269.58,465.905,282.605z"/>
<path fill="#FFFFFF" d="M114.229,377.66c-9.501,0-17.341,7.879-17.341,17.38c0,9.502,7.839,17.38,17.341,17.38
	s17.419-7.878,17.419-17.38C131.648,385.539,123.73,377.66,114.229,377.66z"/>
<path fill="#FFFFFF" d="M409.729,203.861h-95.611c0-31.791,26.091-54.872,26.091-86.9c0-31.751-6.257-52.139-43.471-52.139
	c-17.38,17.657-8.432,59.187-34.759,86.898c-7.602,7.879-14.134,16.312-20.903,24.704c-12.234,15.757-44.539,62.196-65.996,62.196
	h-8.671V412.42h8.671c15.202,0,40.184,9.778,54.831,14.926c29.891,10.332,60.85,19.833,92.878,19.833h32.859
	c30.722,0,52.181-12.232,52.181-45.33c0-5.185-0.556-10.372-1.387-15.24c11.402-6.217,17.657-21.736,17.657-34.206
	c0-6.533-1.624-13.025-4.869-18.726c9.184-8.711,14.37-19.558,14.37-32.306c0-8.711-3.801-21.458-9.501-27.99
	c12.788-0.277,20.389-24.744,20.389-34.76C444.487,220.132,427.898,203.861,409.729,203.861z"/>
</svg>
