<?xml version="1.0" encoding="utf-8"?>
<!-- Generator: Adobe Illustrator 15.1.0, SVG Export Plug-In . SVG Version: 6.00 Build 0)  -->
<!DOCTYPE svg PUBLIC "-//W3C//DTD SVG 1.1//EN" "http://www.w3.org/Graphics/SVG/1.1/DTD/svg11.dtd">
<svg version="1.1" id="Layer_1" xmlns="http://www.w3.org/2000/svg" xmlns:xlink="http://www.w3.org/1999/xlink" x="0px" y="0px"
	 width="100px" height="100px" viewBox="0 0 100 100" enable-background="new 0 0 100 100" xml:space="preserve">
<path d="M96.508,42.072l-20.87,20.358l4.944,28.739c0.06,0.402,0.06,0.747,0.06,1.148c0,1.491-0.696,2.882-2.355,2.882
	c-0.805,0-1.608-0.293-2.306-0.694L50.17,80.936l-25.813,13.57C23.61,94.907,22.86,95.2,22.055,95.2
	c-1.668,0-2.414-1.391-2.414-2.882c0-0.401,0.06-0.746,0.114-1.148L24.7,62.431L3.776,42.072c-0.691-0.746-1.438-1.723-1.438-2.758
	c0-1.726,1.781-2.415,3.218-2.644l28.862-4.195L47.351,6.316c0.519-1.093,1.497-2.359,2.819-2.359c1.321,0,2.298,1.266,2.817,2.359
	l12.937,26.159l28.855,4.195C96.164,36.9,98,37.588,98,39.314C98,40.35,97.253,41.326,96.508,42.072z"/>
<g>
	<path fill="#FFFFFF" d="M34.105,59.765V42.213c0-1.494,0.336-2.614,1.008-3.361c0.672-0.747,1.556-1.12,2.651-1.12
		c1.146,0,2.054,0.374,2.726,1.12c0.672,0.747,1.008,1.868,1.008,3.361v17.95c0,2.042,0.228,3.747,0.685,5.116
		c0.456,1.369,1.265,2.432,2.427,3.187c1.161,0.757,2.789,1.133,4.879,1.133c2.889,0,4.93-0.767,6.125-2.303
		c1.195-1.535,1.792-3.862,1.792-6.983v-18.1c0-1.51,0.332-2.635,0.996-3.374c0.663-0.738,1.552-1.108,2.664-1.108
		c1.111,0,2.012,0.37,2.701,1.108c0.688,0.739,1.033,1.863,1.033,3.374v17.552c0,2.855-0.278,5.237-0.834,7.146
		c-0.557,1.909-1.605,3.585-3.149,5.029c-1.328,1.229-2.872,2.125-4.631,2.688c-1.76,0.563-3.818,0.847-6.174,0.847
		c-2.806,0-5.221-0.304-7.245-0.909c-2.026-0.605-3.677-1.543-4.955-2.812c-1.278-1.271-2.216-2.896-2.813-4.88
		C34.404,64.889,34.105,62.521,34.105,59.765z"/>
</g>
</svg>
