<?xml version="1.0" encoding="utf-8"?>
<!-- Generator: Adobe Illustrator 15.1.0, SVG Export Plug-In . SVG Version: 6.00 Build 0)  -->
<!DOCTYPE svg PUBLIC "-//W3C//DTD SVG 1.1//EN" "http://www.w3.org/Graphics/SVG/1.1/DTD/svg11.dtd">
<svg version="1.1" id="Layer_1" xmlns="http://www.w3.org/2000/svg" xmlns:xlink="http://www.w3.org/1999/xlink" x="0px" y="0px"
	 width="512px" height="512px" viewBox="0 0 512 512" enable-background="new 0 0 512 512" xml:space="preserve">
<path fill="#231F20" d="M319.65,237.722c80.363,70.365,117.43,102.584,117.43,169.36c0,47.789-4.104,76.348-51.031,76.348H127.942
	c-46.971,0-53.844-25.559-53.844-73.348c0-66.775,41.548-122.887,120.218-172.36l-0.003,0.005
	c-30.568-20.321-50.72-55.074-50.72-94.509c0-62.6,50.782-113.403,113.403-113.403c62.579,0,113.382,50.804,113.382,113.403
	c0,39.125-19.845,73.643-50.007,94.028L319.65,237.722z"/>
<g enable-background="new    ">
	<path fill="#FFFFFF" d="M179.443,181.315c0-9.395,3.016-18.915,9.049-28.558c6.032-9.643,14.835-17.628,26.407-23.959
		c11.571-6.328,25.071-9.495,40.5-9.495c14.339,0,27,2.647,37.979,7.937c10.978,5.292,19.457,12.487,25.441,21.585
		c5.982,9.101,8.976,18.989,8.976,29.67c0,8.407-1.706,15.776-5.118,22.104c-3.412,6.331-7.469,11.794-12.165,16.393
		c-4.697,4.599-13.129,12.339-25.294,23.217c-3.362,3.067-6.059,5.763-8.085,8.085c-2.027,2.325-3.537,4.451-4.523,6.379
		c-0.99,1.929-1.758,3.856-2.301,5.786c-0.545,1.928-1.359,5.316-2.447,10.162c-1.879,10.287-7.766,15.428-17.653,15.428
		c-5.144,0-9.471-1.68-12.98-5.043c-3.512-3.361-5.267-8.357-5.267-14.984c0-8.308,1.284-15.501,3.857-21.584
		c2.57-6.083,5.982-11.423,10.236-16.022c4.251-4.599,9.988-10.062,17.208-16.393c6.328-5.538,10.904-9.717,13.723-12.536
		c2.82-2.818,5.193-5.957,7.121-9.42c1.93-3.46,2.894-7.218,2.894-11.274c0-7.912-2.942-14.587-8.826-20.028
		c-5.886-5.438-13.478-8.159-22.772-8.159c-10.881,0-18.892,2.745-24.033,8.233c-5.144,5.489-9.494,13.574-13.055,24.256
		c-3.363,11.177-9.743,16.764-19.137,16.764c-5.54,0-10.213-1.952-14.02-5.86C181.347,190.093,179.443,185.865,179.443,181.315z
		 M251.839,343.908c-6.033,0-11.3-1.954-15.799-5.86c-4.502-3.905-6.75-9.368-6.75-16.394c0-6.229,2.174-11.471,6.527-15.725
		c4.351-4.252,9.691-6.38,16.021-6.38c6.23,0,11.473,2.128,15.727,6.38c4.25,4.254,6.379,9.494,6.379,15.725
		c0,6.925-2.227,12.365-6.676,16.318C262.816,341.93,257.674,343.908,251.839,343.908z"/>
</g>
</svg>
